<svg xmlns="http://www.w3.org/2000/svg" viewBox="0 0 865.33 161.87"><g id="Layer_2" data-name="Layer 2"><g id="Layer_1-2" data-name="Layer 1"><ellipse cx="76.54" cy="53.93" rx="16.84" ry="14.14" style="fill:#f7941d"/><path d="M30.52,31.82C43,44.25,56.05,45.06,59.82,41.29s3-16.87-9.47-29.3S28.44,9.91,28.44,9.91,18.09,19.39,30.52,31.82Z" style="fill:#fff1ad"/><path d="M122.56,31.82C110.13,44.25,97,45.06,93.27,41.29s-3-16.87,9.46-29.3,21.91-2.08,21.91-2.08S135,19.39,122.56,31.82Z" style="fill:#fff1ad"/><path d="M46.22,116c17.75-25.09,19.2-45.1,14-48.77S36.65,71.58,18.91,96.67c-9.13,12.9-10.16,22-9,27.82A11.75,11.75,0,0,0,23,133.74C28.85,132.89,37.1,128.89,46.22,116Z" style="fill:#fff1ad"/><path d="M106.86,116c-17.75-25.09-19.2-45.1-14-48.77s23.58,4.36,41.33,29.45c9.12,12.9,10.15,22,9,27.82a11.74,11.74,0,0,1-13.08,9.25C124.23,132.89,116,128.89,106.86,116Z" style="fill:#fff1ad"/><path d="M62.52,13.67c0,14.16,8.69,22.07,14,22.07s14-7.91,14-22.07S76.54,0,76.54,0,62.52-.49,62.52,13.67Z" style="fill:#ffe443"/><path d="M93.27,128c0-33.54-10.37-52.28-16.73-52.28S59.81,94.48,59.81,128c0,17.35,4.48,26.12,8.8,30.54a11.16,11.16,0,0,0,15.86,0C88.79,154.14,93.27,145.37,93.27,128Z" style="fill:#ffe443"/><path d="M23.71,73.5C44.23,70,54.13,58.86,53.17,53.22s-14-12.88-34.5-9.39C6.8,45.85,2.34,51.71.68,56.3A11.84,11.84,0,0,0,2.62,67.68C5.7,71.46,11.85,75.52,23.71,73.5Z" style="fill:#ffe443"/><path d="M129.37,73.5C108.85,70,99,58.86,99.91,53.22s14-12.88,34.51-9.39c11.86,2,16.33,7.88,18,12.47a11.84,11.84,0,0,1-1.94,11.38C147.39,71.46,141.24,75.52,129.37,73.5Z" style="fill:#ffe443"/><path d="M213.86,67.76c10.45,1.85,18.68,7.36,18.68,17.18,0,6.83-4.09,12.94-10.48,16.37-5.4,2.89-12.47,4.37-19.89,4.37H170.49V101c8.33-.68,9.18-1.38,9.18-10V51.41c0-8.56-1.33-9.56-8.91-10V36.76h33.43c8.1,0,13.36,1,17.72,3.71a13.74,13.74,0,0,1,6.73,12C228.64,61.47,220.88,66.17,213.86,67.76Zm-14.32-1.63c9.82,0,13.66-4,13.66-11.73,0-9.22-6.38-12.29-12.09-12.29-3.35,0-4.73.44-5.49,1.1-1,.78-.93,2.08-.93,3.88v19Zm-4.85,24.79c0,7.21,3,9.59,9.26,9.48S216,95.76,216,86.07c0-10.12-5.41-14.62-16.94-14.62h-4.39Z" style="fill:#007b98"/><path d="M262.88,105.68H233.4v-4.45c5.83-.68,6.58-1.17,6.58-7.06V70.82c0-5.18-.68-5.62-5.75-6.55V60.13a117.82,117.82,0,0,0,19.93-4V67.51c5.33-8,9.74-11.11,13.15-11.11,4.31,0,7.44,2.82,7.44,6.61a10.33,10.33,0,0,1-5.62,9.23,3,3,0,0,1-3.37-.49c-1.84-1.53-3.35-3.14-5.32-3.14-1.67,0-4.37,1.51-6.28,5.71V94.17c0,5.89.66,6.29,8.72,7.06Z" style="fill:#007b98"/><path d="M278.76,105.68v-4.45c5.94-.74,6.7-1.17,6.7-8.7V72.71c0-7.32-.7-7.7-5.94-8.34V60.11a123.54,123.54,0,0,0,20.13-3.82V92.53c0,7.13.42,7.91,6.78,8.7v4.45Zm12.91-55.26a8.27,8.27,0,0,1-8.23-7.91,8.23,8.23,0,0,1,8.34-8,8,8,0,0,1,8.23,8A8.12,8.12,0,0,1,291.67,50.42Z" style="fill:#007b98"/><path d="M324.48,88.12a6,6,0,0,0-1.79,3.57c0,1.73,2.1,3.83,6.73,3.79h12.27c6.43,0,16.33,2.57,16.33,13.21,0,12.58-15.48,21.48-29.75,21.48s-20.91-7-20.91-12.83c0-2.62,1.21-4.24,3.48-5.83,2.69-1.84,5.32-3.52,7.44-4.79a15.69,15.69,0,0,1-7.69-5.81,10.61,10.61,0,0,1-1.87-6.17,35.31,35.31,0,0,0,11.28-8Zm5.59,1.06c-10.85,0-20.69-5.62-20.69-15.92,0-11.58,11.53-16.86,21.29-16.86a28.76,28.76,0,0,1,12.66,2.71,94,94,0,0,0,15.22-1.44l.58.93c-.56,1.91-2.36,5.84-4.14,7-1.89-.08-4.81-.46-6.38-.61a12.5,12.5,0,0,1,2.42,8C351,83.82,341,89.18,330.07,89.18Zm1.74,18c-5.87,0-8.31.46-9.73,1.59-2.23,1.61-3.52,3.69-3.52,5.87,0,5,5.17,9.38,14.59,9.38,8.54,0,13.76-3.74,13.76-9.25,0-3.71-2.54-5.92-5.83-6.72A36,36,0,0,0,331.81,107.21Zm-1.59-46.1c-3.33,0-6.74,3.62-6.74,11.19,0,6.53,2.35,12.18,7.55,12.22,4.3,0,6.68-4.39,6.68-11.52C337.71,66.75,335.48,61.11,330.22,61.11Z" style="fill:#007b98"/><path d="M392,105.68v-4.45c4.84-.7,5.2-1.32,5.2-6.83V75.7c0-8-3.44-10.71-7.74-10.71a11.62,11.62,0,0,0-8,3.2V94.4c0,5.51.57,6.13,5.36,6.83v4.45H360.86v-4.45c5.57-.55,6.4-1,6.4-7.08v-48c0-4.87-.85-5.74-6.61-6.61V35.17a110.13,110.13,0,0,0,20.88-3.48c0,4-.08,9.27-.08,13.41V63.38c3.84-3.65,9.37-7,14.95-7,9.39,0,15.08,6.21,15.08,17.75v20c0,6.08.87,6.14,6.21,7.08v4.45Z" style="fill:#007b98"/><path d="M439.84,105.75a12.23,12.23,0,0,1-4.32,1.2c-8.29,0-13.34-3.94-13.34-13.76V63.74h-7l-.76-1.57,3.33-4.5h4.39v-8.8c3.52-2.37,9.56-6.32,12.89-8.52l1.55.89c-.1,3-.32,9.67-.25,16.43h10.69c1.2,1.06.91,5.07-.9,6.07h-9.79V89.16c0,8.44,3.77,9.1,5.53,9.1a14.73,14.73,0,0,0,5.43-1.15l1.15,4.58Z" style="fill:#007b98"/><path d="M511.54,51.83a43.63,43.63,0,0,0-2.12-6.44c-1.79-4.14-3.35-5.76-9.67-5.76H486.69V93.92c0,8,.75,9.14,10.13,10.37v1.39H469.21v-1.39c9.37-1.43,9.83-2.49,9.83-10.37V39.63H465.85c-5.93,0-6.94,1.81-8.45,4.6a44.28,44.28,0,0,0-2.81,7.6h-1.8c.73-5.78,1.27-11.57,1.59-16.92h1.16c1.29,1.66,2,1.85,5.72,1.85h44.65c3.07,0,4-.32,5-1.85h1.37c0,4.4.42,10.75,1,16.61Z" style="fill:#007b98"/><path d="M519.34,59.93c12.66,0,21.54,10.17,21.54,22.67,0,16.09-11.64,24.35-21.64,24.35-13.35,0-21.86-11.18-21.86-22.66C497.38,67.6,510.45,59.93,519.34,59.93Zm-1.27,2.32c-7.35,0-12.5,7.83-12.5,18.76,0,14.15,6.33,23.41,15,23.41,6.67,0,12.09-5,12.09-19.88C532.69,73,527.69,62.25,518.07,62.25Z" style="fill:#007b98"/><path d="M594.82,105.68v-1.39c6.75-.93,6.9-1.65,6.9-10.16V77.6c0-6.74-1.76-12.39-9.12-12.39-3.93,0-7.35,1.63-11.28,5.22a23.69,23.69,0,0,1,.32,4.65V95.36c0,7.27.46,7.9,6.39,8.93v1.39H567.9v-1.39c6.18-1,6.74-1.75,6.74-9V77.5c0-7.85-2.14-12.39-9.2-12.39-3.85,0-7.69,2.27-10.88,5.22V95.05c0,7.39.25,8.21,6.79,9.24v1.39H540.52v-1.39c6.7-.84,7-1.75,7-9.14V73.79c0-7-.42-7.41-5.47-8.67V64a42.17,42.17,0,0,0,12.67-4.44c-.2,3.73-.2,6.73-.2,8.39,2-1.4,4.26-3.2,7-5,3.05-1.89,5.38-3,8.28-3,4.7,0,8.75,2.29,11,8.4a103.46,103.46,0,0,1,8.67-6,12.85,12.85,0,0,1,7.2-2.36c7.48,0,12,5.93,12,15.44V94.75c0,8.19.54,8.51,6.19,9.54v1.39Z" style="fill:#007b98"/><path d="M637.61,59.93c12.67,0,21.55,10.17,21.55,22.67,0,16.09-11.65,24.35-21.64,24.35-13.36,0-21.87-11.18-21.87-22.66C615.65,67.6,628.72,59.93,637.61,59.93Zm-1.27,2.32c-7.35,0-12.49,7.83-12.49,18.76,0,14.15,6.33,23.41,15,23.41,6.67,0,12.09-5,12.09-19.88C651,73,646,62.25,636.34,62.25Z" style="fill:#007b98"/><path d="M682.16,105.68H660.33v-1.39c6.19-.93,6.63-1.47,6.63-9.14V73.78c0-6.8,0-7.41-5.49-8.65V64a45.64,45.64,0,0,0,12.78-4.45c-.1,2-.1,7.57-.29,11.47,2.63-4.53,8-11.05,12.87-11.05,3.14,0,5.27,2.14,5.27,4.2a6.4,6.4,0,0,1-2.72,5,1.79,1.79,0,0,1-2.46,0c-1.59-1.59-2.87-2.65-4.78-2.65-2.12,0-5.46,2.4-8.18,7.71v21c0,7.49.53,8,8.2,9.15Z" style="fill:#007b98"/><path d="M717.68,105.68H695.85v-1.39c6.19-.93,6.62-1.47,6.62-9.14V73.78c0-6.8,0-7.41-5.49-8.65V64a45.71,45.71,0,0,0,12.79-4.45c-.1,2-.1,7.57-.3,11.47,2.63-4.53,8-11.05,12.88-11.05,3.14,0,5.26,2.14,5.26,4.2a6.37,6.37,0,0,1-2.72,5,1.79,1.79,0,0,1-2.46,0c-1.59-1.59-2.86-2.65-4.77-2.65-2.13,0-5.46,2.4-8.19,7.71v21c0,7.49.53,8,8.21,9.15Z" style="fill:#007b98"/><path d="M749.8,59.93c12.66,0,21.54,10.17,21.54,22.67,0,16.09-11.64,24.35-21.64,24.35-13.35,0-21.87-11.18-21.87-22.66C727.83,67.6,740.91,59.93,749.8,59.93Zm-1.27,2.32c-7.36,0-12.5,7.83-12.5,18.76,0,14.15,6.33,23.41,15,23.41,6.67,0,12.08-5,12.08-19.88C763.14,73,758.15,62.25,748.53,62.25Z" style="fill:#007b98"/><path d="M837.87,62.49c-5.7,1.44-6.46,2.6-8.29,7.56-2.58,7.08-8.46,24-12.92,36.9h-1.72c-3.25-9.48-8.78-23.75-12.52-33.3-3.83,9.66-9.09,22.31-13.13,33.3h-1.61c-3.62-12-9.91-30.94-12.2-38-1.61-4.54-2.27-5.57-7.56-6.5V61.2h20v1.29c-6.37,1.26-6.49,2.08-5.21,6.47,2.15,7.28,5.8,18.33,8.34,26.28,3.65-8.84,8.88-22.53,13-33.61h1.29c3.83,10.64,8.27,22.58,12.53,33.93,3.12-8.93,6-18,8.43-26,1.38-4.73.82-6-6.19-7.1V61.2h17.76Z" style="fill:#007b98"/><path d="M862.42,72.24c-1.91-7.33-5.85-10.09-10.84-10.09-4.5,0-7,2.84-7,7.18,0,5.15,3.67,7.37,8.82,10,7.54,3.76,11.9,7.14,11.9,13.64,0,8.68-7.72,14-15.61,14a29.14,29.14,0,0,1-10.45-2.08c-.53-1.8-1.78-8.51-2.1-11.23l1.4-.33c1.71,6.2,5.72,11.42,12.74,11.42,4.82,0,7.82-3.06,7.82-7.71,0-5.06-3.06-7.7-8.29-10.55C844.6,83,839.05,79.76,839,72.62s6-12.69,14.67-12.69c4.16,0,7.28,1,9,1.08.12,2.05,1.06,9,1.3,10.79Z" style="fill:#007b98"/></g></g></svg>